HIERARCHY
ROOT Hips
{
	OFFSET 0.00000 0.00000 0.00000
	CHANNELS 6 Xposition Yposition Zposition Zrotation Yrotation Xrotation 
	JOINT LHipJoint
	{
		OFFSET 0 0 0
		CHANNELS 3 Zrotation Yrotation Xrotation
		JOINT LeftHip
		{
			OFFSET 1.27966 -1.91611 0.81506
			CHANNELS 3 Zrotation Yrotation Xrotation
			JOINT LeftKnee
			{
				OFFSET 2.49511 -6.85528 0.00000
				CHANNELS 3 Zrotation Yrotation Xrotation
				JOINT LeftAnkle
				{
					OFFSET 2.67286 -7.34045 0.00000
					CHANNELS 3 Zrotation Yrotation Xrotation
					JOINT LeftToe
					{
						OFFSET 0.22740 -0.62477 2.32102
						CHANNELS 3 Zrotation Yrotation Xrotation
						End Site
						{
							OFFSET 0.00000 -0.00000 1.20480
						}
					}
				}
			}
		}
	}
	JOINT RHipJoint
	{
		OFFSET 0 0 0
		CHANNELS 3 Zrotation Yrotation Xrotation
		JOINT RightHip
		{
			OFFSET -1.09666 -1.91611 0.81505
			CHANNELS 3 Zrotation Yrotation Xrotation
			JOINT RightKnee
			{
				OFFSET -2.51373 -6.90642 0.00000
				CHANNELS 3 Zrotation Yrotation Xrotation
				JOINT RightAnkle
				{
					OFFSET -2.70173 -7.42295 0.00000
					CHANNELS 3 Zrotation Yrotation Xrotation
					JOINT RightToe
					{
						OFFSET -0.22214 -0.61032 2.18267
						CHANNELS 3 Zrotation Yrotation Xrotation
						End Site
						{
							OFFSET -0.00000 -0.00000 1.13683
						}
					}
				}
			}
		}
	}
	JOINT lowerback
	{
		OFFSET 0 0 0
		CHANNELS 3 Zrotation Yrotation Xrotation
		JOINT Chest
		{
			OFFSET -0.00990 2.16804 -0.08389
			CHANNELS 3 Zrotation Yrotation Xrotation
			JOINT Chest2
			{
				OFFSET 0.06407 2.15456 0.07285
				CHANNELS 3 Zrotation Yrotation Xrotation
				JOINT lowerneck
				{
					OFFSET 0 0 0
					CHANNELS 3 Zrotation Yrotation Xrotation
					JOINT Neck
					{
						OFFSET -0.16931 1.61602 0.24462
						CHANNELS 3 Zrotation Yrotation Xrotation
						JOINT Head
						{
							OFFSET 0.21556 1.63376 -0.33896
							CHANNELS 3 Zrotation Yrotation Xrotation
							End Site
							{
								OFFSET 0.08444 1.69244 -0.14900
							}
						}
					}
				}
				JOINT LeftCollar
				{
					OFFSET 0 0 0
					CHANNELS 3 Zrotation Yrotation Xrotation
					JOINT LeftShoulder
					{
						OFFSET 2.89000 1.40150 -0.54392
CHANNELS 3 Zrotation Xrotation Yrotation
						JOINT LeftElbow
						{
OFFSET 0 -5.107550 0.000000
CHANNELS 3 Zrotation Xrotation Yrotation
							JOINT LeftWrist
							{
OFFSET 0 -3.362530 0.000000
CHANNELS 3 Zrotation Xrotation Yrotation
								JOINT lhand
								{
									OFFSET 0 0 0
CHANNELS 3 Zrotation Xrotation Yrotation
									JOINT LFingers
									{
OFFSET 0 -0.619090 0.000000
CHANNELS 3 Zrotation Xrotation Yrotation
										End Site
										{
OFFSET 0 -0.499120 0.000000
										}
									}
								}
								JOINT LThumb
								{
OFFSET 0 0.000000 0.000000
CHANNELS 3 Zrotation Xrotation Yrotation
									End Site
									{
OFFSET 0 -0.506750 0.506750
									}
								}
							}
						}
					}
				}
				JOINT RightCollar
				{
					OFFSET 0 0 0
					CHANNELS 3 Zrotation Yrotation Xrotation
					JOINT RightShoulder
					{
						OFFSET -2.65771 1.70968 -0.54312
CHANNELS 3 Zrotation Xrotation Yrotation
						JOINT RightElbow
						{
OFFSET 0 -5.273870 0.000000
CHANNELS 3 Zrotation Xrotation Yrotation
							JOINT RightWrist
							{
OFFSET 0 -3.401440 0.000000
CHANNELS 3 Zrotation Xrotation Yrotation
								JOINT rhand
								{
									OFFSET 0 0 0
CHANNELS 3 Zrotation Xrotation Yrotation
									JOINT RFingers
									{
OFFSET 0 -0.742820 0.000000
CHANNELS 3 Zrotation Xrotation Yrotation
										End Site
										{
OFFSET 0 -0.598880 0.000000
										}
									}
								}
								JOINT RThumb
								{
OFFSET 0 0.000000 0.000000
CHANNELS 3 Zrotation Xrotation Yrotation
									End Site
									{
OFFSET 0 -0.608030 0.608030
									}
								}
							}
						}
					}
				}
			}
		}
	}
}
MOTION
Frames: 7
Frame Time: 0.008333333333333333
0.741400 17.704300 -2.625200 -4.737500 12.635700 -3.204500 0.000000 0.000000 0.000000 -15.309900 -1.210800 -5.842500 3.582700 11.583400 34.273800 1.414400 -8.754700 -21.300300 0.309000 -3.573500 -9.879700 0.000000 0.000000 0.000000 22.055400 5.059800 -14.241000 -4.351800 -12.614400 37.941600 -0.858300 3.590000 -16.664000 -0.353000 3.817200 -10.562800 -0.803100 -1.649200 8.505100 3.996200 -2.072200 -0.253400 4.893200 -0.954400 -4.862200 -20.013900 -12.165000 -10.215100 16.180800 -16.681200 17.516400 6.619200 -7.797400 10.402900 -0.000000 -0.000000 0.000000 5.348400 -8.922000 -42.902900 95.580500 -59.882000 64.831000 16.600700 5.250700 -16.348800 0.000000 0.000000 0.000000 -7.125000 0.000000 0.000000 -10.612500 46.719100 0.455200 -0.000000 -0.000000 0.000000 -13.087000 -1.417300 22.437100 -107.577500 -58.799800 -75.161200 -21.586800 -10.123000 -19.911500 0.000000 0.000000 0.000000 7.125000 0.000000 -0.000000 4.367400 8.747000 3.663400
1.054220 17.611680 -2.793373 -2.901805 12.357445 -3.995085 0.000000 0.000000 0.000000 -18.502524 -0.560742 -5.331961 3.716554 11.773364 34.934880 1.435779 -9.458244 -21.502161 0.242543 -3.169367 -8.750607 0.000000 0.000000 0.000000 18.350948 4.156296 -17.015066 -5.626537 -14.056075 43.463207 -0.760742 4.558296 -15.571154 -0.417592 4.147683 -11.492477 -2.358618 -1.387117 9.096256 3.172300 -1.930494 -0.003423 4.906673 -0.858621 -4.922040 -20.037532 -11.693416 -10.682639 15.666263 -15.926090 18.610993 6.584265 -7.471436 10.678210 0.000000 0.000000 0.000000 4.513235 -21.939742 -44.265216 125.039782 -54.808655 89.816161 17.611005 -0.785691 -16.318938 0.000000 0.000000 0.000000 -7.125000 0.000000 0.000000 -9.666600 46.822919 0.438820 0.000000 0.000000 0.000000 -16.302857 -12.455576 22.692901 -133.642499 -51.416462 -96.704833 -22.144693 -14.292690 -22.092848 0.000000 0.000000 0.000000 7.125000 0.000000 0.000000 4.213516 6.356635 3.714573
1.315266 17.450687 -2.862695 -1.359936 11.999519 -5.241089 0.000000 0.000000 0.000000 -21.332059 -0.298257 -4.647255 4.087909 12.276405 36.716926 1.534284 -9.644206 -22.231407 0.160533 -2.581009 -7.114382 0.000000 0.000000 0.000000 14.730983 4.824702 -21.621511 -8.136310 -16.218536 53.051984 -0.562218 3.219080 -13.432257 -0.914516 6.093159 -17.055116 -3.728834 -1.084683 9.884083 2.576133 -1.726362 0.086078 5.058047 -0.722651 -5.270610 -19.680758 -10.725435 -10.384865 14.950127 -14.661069 20.084746 6.555190 -6.949051 10.795647 0.000000 0.000000 0.000000 1.553003 -28.761088 -47.097495 131.747760 -52.265842 95.214932 16.135198 -2.594441 -14.545738 0.000000 0.000000 0.000000 -7.125000 0.000000 0.000000 -10.550329 44.831999 -0.044265 0.000000 0.000000 0.000000 -17.974826 -20.736719 22.456992 -138.259066 -49.068132 -100.255444 -23.259093 -11.348675 -22.907000 0.000000 0.000000 0.000000 7.125000 0.000000 0.000000 3.587897 5.321043 3.245922
1.422870 17.460880 -2.626227 -2.618297 12.776485 -5.830626 0.000000 0.000000 0.000000 -20.278456 -0.346020 -3.274592 4.026607 12.195740 36.428020 1.569923 -9.505514 -22.476924 0.189136 -2.800725 -7.724417 0.000000 0.000000 0.000000 14.955540 8.464143 -21.203783 -6.151238 -14.572000 45.583337 -0.809906 1.986455 -16.449487 -1.069673 6.574759 -18.461485 -2.901219 -1.001496 9.588740 2.998956 -1.490206 -0.101539 4.997045 -0.616651 -5.338101 -20.212427 -10.818654 -11.069341 15.232625 -14.774469 21.223739 6.739869 -6.986658 11.449919 0.000000 0.000000 0.000000 -0.959600 -28.802412 -49.827519 132.341647 -52.006247 95.683799 16.716438 -3.065606 -12.836288 0.000000 0.000000 0.000000 -7.125000 0.000000 0.000000 -9.616357 43.155621 -0.441300 0.000000 0.000000 0.000000 -18.362688 -21.799803 22.656753 -141.958717 -46.865273 -103.004141 -20.138440 -12.566236 -21.115647 0.000000 0.000000 0.000000 7.125000 0.000000 0.000000 5.388338 7.702284 4.638362
1.364527 17.441290 -2.276920 -3.379809 16.641529 -6.227690 0.000000 0.000000 0.000000 -19.006944 -1.263730 -2.152518 4.166073 12.378200 37.083303 1.628411 -10.863905 -22.993667 0.268889 -3.334038 -9.210283 0.000000 0.000000 0.000000 14.644657 10.933986 -18.619593 -4.176353 -12.391483 37.131261 -0.135927 4.733492 -6.877598 -0.890271 6.013239 -16.823159 -2.992299 -1.646152 9.063552 3.189727 -2.348144 1.319471 5.292846 -1.113808 -3.451792 -19.670976 -11.895313 -13.634690 15.412153 -15.864492 20.204442 6.358138 -7.283367 11.767054 0.000000 0.000000 0.000000 -1.486945 -34.181490 -51.660134 136.346110 -50.091708 98.798877 17.153890 -4.602748 -13.688672 0.000000 0.000000 0.000000 -7.125000 0.000000 0.000000 -9.420998 44.075194 -0.214413 0.000000 0.000000 0.000000 -19.876488 -24.843506 20.875282 -147.907765 -42.618550 -107.196077 -18.522122 -13.659955 -19.885780 0.000000 0.000000 0.000000 7.125000 0.000000 0.000000 6.341524 9.200641 5.276578
1.308281 17.519450 -2.089401 -2.655825 20.918286 -6.083158 0.000000 0.000000 0.000000 -19.077801 4.512565 -5.091325 4.578933 12.893329 38.970432 1.380244 -9.977722 -21.135613 0.018729 0.851933 2.341676 0.000000 0.000000 0.000000 14.048232 8.716500 -18.518098 -4.404642 -12.680239 38.183107 -0.224090 1.509336 -8.542456 -0.837333 5.837011 -16.312347 -3.853557 -2.106598 10.534910 2.387319 -3.130520 0.086050 5.152724 -1.407678 -5.479178 -19.799391 -11.059323 -9.780327 16.496488 -15.714163 20.710634 7.025708 -7.328256 11.290174 0.000000 0.000000 0.000000 -3.381867 -38.910780 -55.516810 136.300218 -50.115395 98.763719 17.304581 -4.259087 -12.287783 0.000000 0.000000 0.000000 -7.125000 0.000000 0.000000 -8.972775 42.654880 -0.523763 0.000000 0.000000 0.000000 -22.497139 -25.040751 19.414994 -149.171654 -41.592866 -108.044302 -22.817871 -15.265662 -24.913130 0.000000 0.000000 0.000000 7.125000 0.000000 0.000000 4.081836 3.295165 3.850434
1.291964 17.173061 -2.250385 -1.009627 21.834505 -4.875877 0.000000 0.000000 0.000000 -20.441813 6.493919 -8.612487 5.186541 13.590599 41.621934 1.884084 -12.534331 -24.867072 0.129306 -2.311644 -6.368079 0.000000 0.000000 0.000000 10.247682 9.297172 -25.253212 -6.617889 -15.000383 47.411876 -0.239586 4.257713 -8.757325 -0.565929 4.813590 -13.378687 -5.643064 -1.756505 12.088672 2.279789 -2.967112 0.156675 6.120532 -1.249234 -6.214386 -19.806126 -10.628544 -8.476427 16.877410 -15.074434 18.328114 7.267910 -7.076475 10.071661 0.000000 0.000000 0.000000 -4.674470 -44.185333 -57.020952 138.377463 -49.001963 100.344689 18.531237 -5.144062 -11.763233 0.000000 0.000000 0.000000 -7.125000 0.000000 0.000000 -7.778204 42.236844 -0.533651 0.000000 0.000000 0.000000 -26.730208 -30.710635 16.483477 -150.848274 -40.154954 -109.141555 -20.364536 -13.320178 -21.694686 0.000000 0.000000 0.000000 7.125000 0.000000 0.000000 5.292395 7.065527 4.619276
